10 minutes of preview


Format                           : MPEG-4
Format profile                   : Base Media / Version 2
Codec ID                         : mp42
File size                        : 30.3 MiB
Duration                         : 10mn 28s
Overall bit rate                 : 404 Kbps


Video
ID                               : 1
Format                           : AVC
Format/Info                      : Advanced Video Codec
Format profile                   : Baseline@L3.0
Format settings, CABAC           : No
Format settings, ReFrames        : 1 frame
Format settings, GOP             : M=1, N=39
Codec ID                         : avc1
Codec ID/Info                    : Advanced Video Coding
Duration                         : 10mn 28s
Bit rate mode                    : Variable
Bit rate                         : 307 Kbps
Maximum bit rate                 : 2 024 Kbps
Width                            : 636 pixels
Height                           : 360 pixels
Display aspect ratio             : 16:9
Frame rate mode                  : Constant
Frame rate                       : 23.976 fps
Color space                      : YUV
Chroma subsampling               : 4:2:0
Bit depth                        : 8 bits
Scan type                        : Progressive
Bits/(Pixel*Frame)               : 0.056
Stream size                      : 23.0 MiB (76%)
Tagged date                      : UTC 2012-05-31 14:41:16

Audio
ID                               : 2
Format                           : AAC
Format/Info                      : Advanced Audio Codec
Format profile                   : LC
Codec ID                         : 40
Duration                         : 10mn 28s
Bit rate mode                    : Variable
Bit rate                         : 96.0 Kbps
Maximum bit rate                 : 127 Kbps
Channel(s)                       : 2 channels
Channel positions                : Front: L R
Sampling rate                    : 44.1 KHz
Compression mode                 : Lossy
Stream size                      : 7.13 MiB (24%)

